<svg width="108" height="182" viewBox="0 0 108 182" xmlns="http://www.w3.org/2000/svg"><title>elements/marktguru_guru_large_white</title><g fill="#FFF" fill-rule="evenodd"><path d="M42.37 84.93h-.81a6.77 6.77 0 0 0-6.36 6.68l.01.01c.01.12.1.21.21.24 0 0 0 .02.02.02h2.3l.02-.01c.14-.01.25-.13.25-.27.48-2.39 1.86-3.72 3.87-3.77h.18c2 .05 3.38 1.38 3.86 3.77 0 .14.11.26.25.27h2.32l.02-.01c.11-.03.2-.12.21-.24a6.77 6.77 0 0 0-6.35-6.69M66.33 84.93H65.5a6.77 6.77 0 0 0-6.35 6.68v.01c.01.12.1.21.21.24 0 0 0 .02.02.02h2.3l.02-.01c.14-.01.25-.13.25-.27.48-2.39 1.87-3.72 3.87-3.77H66c2 .05 3.4 1.38 3.87 3.77 0 .14.11.26.26.27h2.31l.02-.01c.11-.03.2-.12.21-.24a6.77 6.77 0 0 0-6.34-6.69"/><path d="M26.07 49.3zm61.96-35.54A52.07 52.07 0 0 0 16.64 17c-9.78 10-14.89 22.17-15.42 36.25a53.06 53.06 0 0 0 4 22.34l.06.07c.01.1.1.19.2.19s.18-.08.2-.18a52.2 52.2 0 0 1 20.1-26.18.43.43 0 0 1 .42.65l-.12.13A53.9 53.9 0 0 0 9.85 83.75c-.04.34.05.76.24 1.04a53.3 53.3 0 0 0 16.26 15.99h.04c.05.03.11.06.18.06a.33.33 0 0 0 .3-.47c-1.8-2.91-2.3-6.1-1.44-9.52.59-2.38 1.94-4.28 3.65-6a268.82 268.82 0 0 0 27.75-33.2 265.8 265.8 0 0 0 15.64-24.97l.02-.01-.12.21a.51.51 0 0 1 .67-.22c.18.08.28.26.3.44a214.09 214.09 0 0 1-15.29 33.1v.04a.6.6 0 0 0-.1.3c0 .19.09.35.21.46 2.34 2.87 4.8 5.94 7.17 8.77 4.5 5.4 9.21 10.59 14.18 15.54 4 4 4.7 10.27 1.77 15.03a.33.33 0 0 0-.05.16c0 .19.15.34.33.34.07 0 .13-.03.19-.07h.03a53.77 53.77 0 0 0 14.07-12.85c.23-.3.3-.56.23-.94a46.89 46.89 0 0 0-13.3-24.91l-.23-.22a.4.4 0 0 1-.03-.5c.1-.12.25-.17.4-.14A46.7 46.7 0 0 1 99.58 81.4c0 .02.01.01.02.02.03.09.1.16.2.16.09 0 .15-.07.19-.15.01 0 .03 0 .04-.03 11.3-19.65 9.64-49.05-12-67.65zM72.37 26.87l-.02.04.02-.04M75.08 158.78a4.84 4.84 0 0 0-5.05 4.12c-.2 1.24.23 2.31 1.12 2.8.06.03.05-.05.04-.11l.06.02a.2.2 0 0 0 .14-.07c.04.02.07.03.06 0l-.01-.11v-.02l-.01-.04c-.23-1.38.74-2.56 2.15-2.5 1.6.08 2.83.84 3.58 2.28 1.15 2.2.21 5.17-2.02 6.54-1.77 1.1-3.65.93-5.53.43-4.62-1.24-7.62-6.6-5.98-11.6a34.42 34.42 0 0 1 3.04-6.36c2.23-3.89 4.46-7.77 6.2-11.92 1.63-3.86 2.81-9.94 3.61-15.57a26.94 26.94 0 0 1-5.8-3.67l-.68-.54c-1.29-1.03-2.5-2-3.79-2.71a8.23 8.23 0 0 0-3.94-1.17c-1.14 0-2.23.32-3.34.98a9.08 9.08 0 0 1-4.67 1.25h-.41c-1.7 0-3.27-.42-4.68-1.25a6.45 6.45 0 0 0-3.33-.98c-1.23 0-2.56.4-3.95 1.17-1.28.7-2.5 1.68-3.78 2.7l-.69.55a25.85 25.85 0 0 1-6.27 3.87l.04.41c.79 7.4 3.47 14.34 6.62 21.05a86.63 86.63 0 0 0 12.5 19.47c2.3 2.7 4.66 5.33 7.52 7.44 2.89 2.13 5.95 3.91 9.46 4.73 1.33.31 2.7.45 4.06.66h1.82c.14-.03.28-.08.42-.1 2.4-.22 4.55-1.11 6.38-2.7 3.23-2.81 4.76-6.4 4.23-10.7a9.46 9.46 0 0 0-9.12-8.35"/><path d="M86.74 103.86h-.03a4.85 4.85 0 0 0-4.86 4.72 2.39 2.39 0 0 0 1.09 2.16h.02c.03.04.08.07.14.07a.2.2 0 0 0 .2-.2v-.03c-.24-1.58.78-2.62 2.2-2.62.28 0 .58.04.89.13 2.63.76 3.87 3.7 2.65 6.36a5.22 5.22 0 0 1-4.84 3.13c-.86 0-1.76-.2-2.65-.6a12.5 12.5 0 0 1-4.63-3.82c-1.82-2.31-3.52-4.72-5.3-7.07-1.3-1.73-2.64-3.43-4.56-4.55a10.4 10.4 0 0 0-12.7 1.68c-.13.15-.25.32-.38.5v-.03l-.06.06-.06-.06v.03c-.13-.18-.25-.35-.39-.5a10.41 10.41 0 0 0-12.7-1.68c-1.9 1.12-3.25 2.82-4.56 4.55-1.77 2.35-3.47 4.76-5.3 7.07a12.5 12.5 0 0 1-4.62 3.82c-.89.4-1.79.6-2.65.6a5.22 5.22 0 0 1-4.84-3.13c-1.22-2.67.02-5.6 2.65-6.36.31-.1.61-.13.9-.13 1.4 0 2.43 1.04 2.2 2.62l-.02.03c0 .11.1.2.2.2.07 0 .12-.03.15-.08h.06c.72-.5 1.09-1.27 1.05-2.15a4.85 4.85 0 0 0-4.86-4.72h-.03a9.6 9.6 0 0 0-9.4 8.95c-.25 4.7 1.64 8.4 5.5 11a11.4 11.4 0 0 0 6.52 1.91 19 19 0 0 0 4.3-.54c2.89-.67 5.28-2.3 7.58-4.12 1.56-1.24 3.11-2.54 4.84-3.5 1.08-.6 2.17-1.04 3.27-1.28l-.04-.02.61-.09.18-.02a43.8 43.8 0 0 0 9.51-3.08s5.17 2.48 10.3 3.2l-.09.02c1.09.25 2.16.68 3.22 1.27 1.73.96 3.28 2.26 4.84 3.5 2.3 1.82 4.7 3.45 7.58 4.12a19 19 0 0 0 4.3.54c2.26 0 4.45-.53 6.52-1.92a11.77 11.77 0 0 0 5.5-11 9.6 9.6 0 0 0-9.4-8.94"/></g></svg>