<svg width="148" height="64" viewBox="0 0 148 64" xmlns="http://www.w3.org/2000/svg"><title>elements/marktguru_typo_large_white</title><g fill="#FFF" fill-rule="evenodd"><path d="M6.19 1.46c.02-.2.17-.37.44-.37h.4c.2 0 .34.1.42.25l5.43 11.69h.08l5.44-11.7c.07-.14.2-.24.42-.24h.4c.26 0 .41.17.44.37l2.91 16.64c.08.35-.12.57-.44.57h-2.25c-.22 0-.42-.2-.47-.37l-1.46-9.38h-.07l-4.33 9.73c-.05.14-.2.27-.42.27h-.44c-.23 0-.35-.13-.42-.27L7.89 8.92h-.07L6.38 18.3a.48.48 0 0 1-.44.37H3.7c-.32 0-.52-.22-.47-.57L6.2 1.46M25.2 18.03l7.68-16.67c.07-.15.2-.27.42-.27h.25c.24 0 .34.12.42.27l7.6 16.67c.16.32-.04.64-.41.64H39c-.37 0-.54-.15-.72-.5l-1.2-2.67h-7.4l-1.21 2.68c-.1.24-.32.5-.72.5h-2.15c-.37 0-.57-.33-.42-.65m10.68-5.28L33.4 7.31h-.08l-2.42 5.44h4.97M44.32 1.8c0-.24.2-.46.47-.46h7.07a5.36 5.36 0 0 1 5.39 5.32c0 2.28-1.5 4.14-3.66 5l3.39 6.3c.17.32 0 .71-.42.71h-2.6a.42.42 0 0 1-.4-.22l-3.28-6.56h-2.75v6.31c0 .25-.22.47-.47.47H44.8a.47.47 0 0 1-.47-.47V1.8zm7.27 7.44a2.52 2.52 0 0 0 2.45-2.53c0-1.31-1.14-2.4-2.45-2.4h-4.03v4.93h4.03zM60.78 1.93c0-.32.25-.6.6-.6h2.17c.32 0 .6.28.6.6v6.69l6.22-7.03a.6.6 0 0 1 .47-.25h2.47c.47 0 .72.52.4.89l-6.45 7.28 6.92 8.3c.25.32.05.86-.45.86h-2.69c-.25 0-.4-.1-.45-.17l-6.45-7.98v7.56a.6.6 0 0 1-.59.6h-2.18a.59.59 0 0 1-.59-.6V1.93M80.28 4.31H76.5a.47.47 0 0 1-.47-.47V1.81c0-.25.2-.47.47-.47h10.8c.28 0 .47.22.47.47v2.03c0 .25-.2.47-.47.47h-3.78V18.2c0 .25-.22.47-.47.47h-2.3a.49.49 0 0 1-.47-.47V4.31M21.02 23.55c5.02 0 9.8 1.96 13.6 5.2.44.44.5 1.11.05 1.56l-3.45 3.62c-.45.45-.95.45-1.45 0a12.62 12.62 0 0 0-8.41-3.23c-6.97 0-12.48 5.97-12.48 12.94 0 6.92 5.51 12.78 12.53 12.78 3.12 0 5.52-.95 6.63-1.4V48.4H23.6c-.62 0-1.06-.45-1.06-1v-4.41c0-.62.44-1.06 1.06-1.06h10.69c.56 0 1 .5 1 1.06v16.17c0 .45-.22.73-.44.9 0 0-5.74 3.62-13.82 3.62-11.08 0-20-8.81-20-19.97a20.02 20.02 0 0 1 20-20.15M42.52 25.25c0-.56.5-1.06 1.06-1.06h5.3c.6 0 1.05.5 1.05 1.06v22.74c0 4.75 3.23 8.48 8.08 8.48 4.84 0 8.13-3.73 8.13-8.42v-22.8c0-.56.44-1.06 1.06-1.06h5.29c.55 0 1.06.5 1.06 1.06v23.13A15.3 15.3 0 0 1 58 63.73a15.29 15.29 0 0 1-15.49-15.35V25.25M80.84 25.17c0-.55.44-1.06 1.06-1.06h15.93c6.68 0 12.14 5.36 12.14 12 0 5.13-3.4 9.32-8.24 11.27l7.63 14.17c.39.73 0 1.62-.95 1.62h-5.85a.96.96 0 0 1-.89-.5l-7.4-14.79h-6.19v14.23c0 .56-.5 1.06-1.06 1.06H81.9c-.62 0-1.06-.5-1.06-1.06V25.17zM97.2 41.91a5.68 5.68 0 0 0 5.52-5.69 5.55 5.55 0 0 0-5.52-5.41h-9.07v11.1h9.07zM116.54 25.25c0-.56.5-1.06 1.06-1.06h5.29c.61 0 1.06.5 1.06 1.06v22.74c0 4.75 3.23 8.48 8.07 8.48 4.85 0 8.14-3.73 8.14-8.42v-22.8c0-.56.44-1.06 1.06-1.06h5.29c.55 0 1.05.5 1.05 1.06v23.13a15.3 15.3 0 0 1-15.54 15.35 15.29 15.29 0 0 1-15.48-15.35V25.25"/></g></svg>